<svg width="30" height="30" viewBox="0 0 30 30" fill="none" xmlns="http://www.w3.org/2000/svg">
<g clip-path="url(#clip0_1_752)">
<path fill-rule="evenodd" clip-rule="evenodd" d="M0 15.0839C0 22.5414 5.41625 28.7426 12.5 30.0001V19.1664H8.75V15.0001H12.5V11.6664C12.5 7.91637 14.9163 5.83387 18.3337 5.83387C19.4163 5.83387 20.5837 6.00012 21.6663 6.16637V10.0001H19.75C17.9163 10.0001 17.5 10.9164 17.5 12.0839V15.0001H21.5L20.8337 19.1664H17.5V30.0001C24.5837 28.7426 30 22.5426 30 15.0839C30 6.78762 23.25 0.00012207 15 0.00012207C6.75 0.00012207 0 6.78762 0 15.0839Z" fill="white"/>
</g>
<defs>
<clipPath id="clip0_1_752">
<rect width="30" height="30" fill="white"/>
</clipPath>
</defs>
</svg>
