<svg width="30" height="30" viewBox="0 0 30 30" fill="none" xmlns="http://www.w3.org/2000/svg">
<g clip-path="url(#clip0_1_756)">
<path d="M25.3964 5.61436C23.4839 4.75186 21.4339 4.11436 19.2901 3.75186C19.271 3.74819 19.2513 3.75055 19.2336 3.75862C19.2159 3.76668 19.2011 3.78004 19.1914 3.79686C18.9289 4.25811 18.6364 4.85936 18.4314 5.33436C16.1577 4.99465 13.8462 4.99465 11.5726 5.33436C11.3443 4.80793 11.0868 4.29464 10.8014 3.79686C10.7917 3.77984 10.7771 3.76617 10.7594 3.75768C10.7418 3.74919 10.722 3.74629 10.7026 3.74936C8.56011 4.11186 6.51011 4.74936 4.59636 5.61311C4.5799 5.62001 4.56594 5.63179 4.55636 5.64686C0.666363 11.3656 -0.399888 16.9431 0.123863 22.4506C0.12532 22.4641 0.129507 22.4771 0.136169 22.489C0.14283 22.5008 0.151828 22.5111 0.162613 22.5194C2.4331 24.1724 4.96553 25.4316 7.65386 26.2444C7.6726 26.2501 7.69265 26.2501 7.71138 26.2443C7.73011 26.2385 7.74666 26.2272 7.75886 26.2119C8.33736 25.4382 8.84999 24.6174 9.29136 23.7581C9.29749 23.7464 9.30102 23.7334 9.30172 23.7202C9.30241 23.707 9.30026 23.6937 9.2954 23.6814C9.29054 23.6691 9.28309 23.6579 9.27355 23.6487C9.26401 23.6396 9.25261 23.6325 9.24011 23.6281C8.43262 23.324 7.65022 22.9571 6.90011 22.5306C6.88663 22.5229 6.87528 22.512 6.86706 22.4988C6.85884 22.4857 6.85402 22.4707 6.85303 22.4552C6.85204 22.4397 6.85491 22.4242 6.86138 22.4101C6.86785 22.396 6.87773 22.3837 6.89011 22.3744C7.04761 22.2581 7.20511 22.1369 7.35511 22.0156C7.36862 22.0047 7.38488 21.9978 7.40209 21.9956C7.41931 21.9933 7.4368 21.996 7.45261 22.0031C12.3614 24.2081 17.6776 24.2081 22.5289 22.0031C22.5447 21.9955 22.5624 21.9926 22.5799 21.9946C22.5973 21.9966 22.6139 22.0034 22.6276 22.0144C22.7776 22.1369 22.9339 22.2581 23.0926 22.3744C23.1051 22.3835 23.1152 22.3956 23.1218 22.4096C23.1285 22.4236 23.1316 22.439 23.1309 22.4545C23.1301 22.47 23.1256 22.485 23.1176 22.4983C23.1096 22.5116 23.0984 22.5227 23.0851 22.5306C22.3376 22.9606 21.5601 23.3244 20.7439 23.6269C20.7313 23.6314 20.7199 23.6386 20.7104 23.6479C20.7008 23.6572 20.6934 23.6685 20.6885 23.6809C20.6837 23.6933 20.6815 23.7066 20.6822 23.7199C20.6829 23.7332 20.6865 23.7463 20.6926 23.7581C21.1426 24.6169 21.6576 25.4344 22.2239 26.2106C22.2356 26.2265 22.252 26.2384 22.2708 26.2447C22.2896 26.251 22.3099 26.2513 22.3289 26.2456C25.0218 25.4352 27.5584 24.1753 29.8314 22.5194C29.8425 22.5116 29.8518 22.5016 29.8587 22.4899C29.8656 22.4783 29.8699 22.4653 29.8714 22.4519C30.4964 16.0844 28.8239 10.5519 25.4351 5.64936C25.4268 5.63342 25.4131 5.621 25.3964 5.61436ZM10.0251 19.0969C8.54761 19.0969 7.32886 17.7606 7.32886 16.1219C7.32886 14.4819 8.52386 13.1469 10.0251 13.1469C11.5376 13.1469 12.7451 14.4931 12.7214 16.1219C12.7214 17.7619 11.5264 19.0969 10.0251 19.0969ZM19.9939 19.0969C18.5151 19.0969 17.2976 17.7606 17.2976 16.1219C17.2976 14.4819 18.4914 13.1469 19.9939 13.1469C21.5064 13.1469 22.7139 14.4931 22.6901 16.1219C22.6901 17.7619 21.5076 19.0969 19.9939 19.0969Z" fill="white"/>
</g>
<defs>
<clipPath id="clip0_1_756">
<rect width="30" height="30" fill="white"/>
</clipPath>
</defs>
</svg>
