<svg width="30" height="30" viewBox="0 0 30 30" fill="none" xmlns="http://www.w3.org/2000/svg">
<path fill-rule="evenodd" clip-rule="evenodd" d="M1.25 3.54763C1.25 2.93829 1.49206 2.35391 1.92292 1.92305C2.35379 1.49218 2.93817 1.25013 3.5475 1.25013H26.45C26.752 1.24963 27.0511 1.3087 27.3302 1.42396C27.6093 1.53921 27.8629 1.70839 28.0766 1.9218C28.2902 2.1352 28.4597 2.38865 28.5752 2.66764C28.6908 2.94662 28.7502 3.24566 28.75 3.54763V26.4501C28.7503 26.7522 28.6911 27.0513 28.5757 27.3304C28.4603 27.6095 28.291 27.8631 28.0775 28.0768C27.864 28.2904 27.6105 28.4598 27.3314 28.5754C27.0524 28.6909 26.7533 28.7503 26.4513 28.7501H3.5475C3.24568 28.7501 2.94682 28.6907 2.668 28.5751C2.38917 28.4596 2.13584 28.2902 1.92248 28.0768C1.70912 27.8633 1.53991 27.6099 1.42453 27.331C1.30914 27.0521 1.24984 26.7532 1.25 26.4514V3.54763ZM12.135 11.7351H15.8588V13.6051C16.3963 12.5301 17.7713 11.5626 19.8375 11.5626C23.7988 11.5626 24.7375 13.7039 24.7375 17.6326V24.9101H20.7288V18.5276C20.7288 16.2901 20.1913 15.0276 18.8263 15.0276C16.9325 15.0276 16.145 16.3889 16.145 18.5276V24.9101H12.135V11.7351ZM5.26 24.7389H9.27V11.5626H5.26V24.7376V24.7389ZM9.84375 7.26513C9.85131 7.60847 9.79022 7.94986 9.66405 8.26927C9.53789 8.58868 9.34919 8.87967 9.10904 9.12517C8.86889 9.37066 8.58213 9.56572 8.26557 9.69888C7.94902 9.83205 7.60905 9.90065 7.26563 9.90065C6.9222 9.90065 6.58224 9.83205 6.26568 9.69888C5.94913 9.56572 5.66236 9.37066 5.42221 9.12517C5.18206 8.87967 4.99337 8.58868 4.8672 8.26927C4.74104 7.94986 4.67994 7.60847 4.6875 7.26513C4.70234 6.59119 4.98048 5.94986 5.46236 5.47848C5.94423 5.0071 6.59153 4.74315 7.26563 4.74315C7.93972 4.74315 8.58702 5.0071 9.0689 5.47848C9.55077 5.94986 9.82891 6.59119 9.84375 7.26513Z" fill="white"/>
</svg>
