<svg width="30" height="30" viewBox="0 0 30 30" fill="none" xmlns="http://www.w3.org/2000/svg">
<path d="M29.5539 6.17061C28.5101 6.63311 27.3889 6.94561 26.2101 7.08686C27.4264 6.3591 28.3363 5.2137 28.7701 3.86436C27.6274 4.5431 26.3768 5.02086 25.0726 5.27686C24.1956 4.34045 23.034 3.71977 21.768 3.51121C20.5021 3.30264 19.2028 3.51785 18.0717 4.12343C16.9406 4.72901 16.0411 5.69107 15.5128 6.86024C14.9846 8.02942 14.8571 9.3403 15.1501 10.5894C12.8347 10.4731 10.5697 9.8713 8.50192 8.82299C6.43416 7.77469 4.60994 6.30332 3.14764 4.50436C2.64764 5.36686 2.36014 6.36686 2.36014 7.43186C2.35958 8.39061 2.59568 9.33467 3.04748 10.1803C3.49929 11.0259 4.15284 11.7469 4.95014 12.2794C4.02548 12.2499 3.12123 12.0001 2.31264 11.5506V11.6256C2.31254 12.9703 2.77768 14.2736 3.62912 15.3144C4.48055 16.3551 5.66585 17.0693 6.98389 17.3356C6.12612 17.5678 5.22681 17.602 4.35389 17.4356C4.72576 18.5926 5.45013 19.6044 6.4256 20.3293C7.40106 21.0541 8.57878 21.4558 9.79389 21.4781C7.73118 23.0974 5.18375 23.9757 2.56139 23.9719C2.09686 23.972 1.63273 23.9449 1.17139 23.8906C3.83323 25.6021 6.93181 26.5104 10.0964 26.5069C20.8089 26.5069 26.6651 17.6344 26.6651 9.93936C26.6651 9.68936 26.6589 9.43686 26.6476 9.18686C27.7868 8.36308 28.77 7.34298 29.5514 6.17436L29.5539 6.17061Z" fill="white"/>
</svg>
